<?xml version="1.0" encoding="UTF-8" standalone="no"?>
<!DOCTYPE svg PUBLIC "-//W3C//DTD SVG 1.1//EN"
 "http://www.w3.org/Graphics/SVG/1.1/DTD/svg11.dtd">
<!-- Generated by graphviz version 14.1.1 (0)
 -->
<!-- Title: dependency&#45;cruiser output Pages: 1 -->
<svg width="931pt" height="792pt"
 viewBox="0.00 0.00 931.00 792.00" xmlns="http://www.w3.org/2000/svg" xmlns:xlink="http://www.w3.org/1999/xlink">
<g id="graph0" class="graph" transform="scale(1 1) rotate(0) translate(4 787.64)">
<title>dependency&#45;cruiser output</title>
<polygon fill="white" stroke="none" points="-4,4 -4,-787.64 927,-787.64 927,4 -4,4"/>
<g id="clust1" class="cluster">
<title>cluster_..</title>
<path fill="#ffffff" stroke="black" stroke-width="2" d="M791.25,-517.64C791.25,-517.64 903,-517.64 903,-517.64 909,-517.64 915,-523.64 915,-529.64 915,-529.64 915,-763.64 915,-763.64 915,-769.64 909,-775.64 903,-775.64 903,-775.64 791.25,-775.64 791.25,-775.64 785.25,-775.64 779.25,-769.64 779.25,-763.64 779.25,-763.64 779.25,-529.64 779.25,-529.64 779.25,-523.64 785.25,-517.64 791.25,-517.64"/>
<text xml:space="preserve" text-anchor="middle" x="847.12" y="-763.09" font-family="Helvetica,sans-Serif" font-weight="bold" font-size="9.00">..</text>
</g>
<g id="clust2" class="cluster">
<title>cluster_../..</title>
<path fill="#ffffff" stroke="black" stroke-width="2" d="M799.25,-525.64C799.25,-525.64 895,-525.64 895,-525.64 901,-525.64 907,-531.64 907,-537.64 907,-537.64 907,-736.64 907,-736.64 907,-742.64 901,-748.64 895,-748.64 895,-748.64 799.25,-748.64 799.25,-748.64 793.25,-748.64 787.25,-742.64 787.25,-736.64 787.25,-736.64 787.25,-537.64 787.25,-537.64 787.25,-531.64 793.25,-525.64 799.25,-525.64"/>
<text xml:space="preserve" text-anchor="middle" x="847.12" y="-736.09" font-family="Helvetica,sans-Serif" font-weight="bold" font-size="9.00">..</text>
</g>
<g id="clust3" class="cluster">
<title>cluster_../../node_modules</title>
<path fill="#ffffff" stroke="black" stroke-width="2" d="M807.25,-533.64C807.25,-533.64 887,-533.64 887,-533.64 893,-533.64 899,-539.64 899,-545.64 899,-545.64 899,-709.64 899,-709.64 899,-715.64 893,-721.64 887,-721.64 887,-721.64 807.25,-721.64 807.25,-721.64 801.25,-721.64 795.25,-715.64 795.25,-709.64 795.25,-709.64 795.25,-545.64 795.25,-545.64 795.25,-539.64 801.25,-533.64 807.25,-533.64"/>
<text xml:space="preserve" text-anchor="middle" x="847.12" y="-709.09" font-family="Helvetica,sans-Serif" font-weight="bold" font-size="9.00">node_modules</text>
</g>
<g id="clust4" class="cluster">
<title>cluster_../../node_modules/fdir</title>
<path fill="#ffffff" stroke="black" stroke-width="2" d="M815.25,-541.64C815.25,-541.64 879,-541.64 879,-541.64 885,-541.64 891,-547.64 891,-553.64 891,-553.64 891,-619.64 891,-619.64 891,-625.64 885,-631.64 879,-631.64 879,-631.64 815.25,-631.64 815.25,-631.64 809.25,-631.64 803.25,-625.64 803.25,-619.64 803.25,-619.64 803.25,-553.64 803.25,-553.64 803.25,-547.64 809.25,-541.64 815.25,-541.64"/>
<text xml:space="preserve" text-anchor="middle" x="847.12" y="-619.09" font-family="Helvetica,sans-Serif" font-weight="bold" font-size="9.00">fdir</text>
</g>
<g id="clust5" class="cluster">
<title>cluster_../../node_modules/fdir/dist</title>
<path fill="#ffffff" stroke="black" stroke-width="2" d="M823.25,-549.64C823.25,-549.64 871,-549.64 871,-549.64 877,-549.64 883,-555.64 883,-561.64 883,-561.64 883,-592.64 883,-592.64 883,-598.64 877,-604.64 871,-604.64 871,-604.64 823.25,-604.64 823.25,-604.64 817.25,-604.64 811.25,-598.64 811.25,-592.64 811.25,-592.64 811.25,-561.64 811.25,-561.64 811.25,-555.64 817.25,-549.64 823.25,-549.64"/>
<text xml:space="preserve" text-anchor="middle" x="847.12" y="-592.09" font-family="Helvetica,sans-Serif" font-weight="bold" font-size="9.00">dist</text>
</g>
<g id="clust6" class="cluster">
<title>cluster_../../node_modules/lodash.merge</title>
<path fill="#ffffff" stroke="black" stroke-width="2" d="M816.38,-639.64C816.38,-639.64 878.88,-639.64 878.88,-639.64 884.88,-639.64 890.88,-645.64 890.88,-651.64 890.88,-651.64 890.88,-682.64 890.88,-682.64 890.88,-688.64 884.88,-694.64 878.88,-694.64 878.88,-694.64 816.38,-694.64 816.38,-694.64 810.38,-694.64 804.38,-688.64 804.38,-682.64 804.38,-682.64 804.38,-651.64 804.38,-651.64 804.38,-645.64 810.38,-639.64 816.38,-639.64"/>
<text xml:space="preserve" text-anchor="middle" x="847.62" y="-682.09" font-family="Helvetica,sans-Serif" font-weight="bold" font-size="9.00">lodash.merge</text>
</g>
<g id="clust7" class="cluster">
<title>cluster_helpers</title>
<path fill="#ffffff" stroke="black" stroke-width="2" d="M692.88,-561.64C692.88,-561.64 738.88,-561.64 738.88,-561.64 744.88,-561.64 750.88,-567.64 750.88,-573.64 750.88,-573.64 750.88,-604.64 750.88,-604.64 750.88,-610.64 744.88,-616.64 738.88,-616.64 738.88,-616.64 692.88,-616.64 692.88,-616.64 686.88,-616.64 680.88,-610.64 680.88,-604.64 680.88,-604.64 680.88,-573.64 680.88,-573.64 680.88,-567.64 686.88,-561.64 692.88,-561.64"/>
<text xml:space="preserve" text-anchor="middle" x="715.88" y="-604.09" font-family="Helvetica,sans-Serif" font-weight="bold" font-size="9.00">helpers</text>
</g>
<g id="clust8" class="cluster">
<title>cluster_lib</title>
<path fill="#ffffff" stroke="black" stroke-width="2" d="M132.75,-89.64C132.75,-89.64 759.25,-89.64 759.25,-89.64 765.25,-89.64 771.25,-95.64 771.25,-101.64 771.25,-101.64 771.25,-541.64 771.25,-541.64 771.25,-547.64 765.25,-553.64 759.25,-553.64 759.25,-553.64 132.75,-553.64 132.75,-553.64 126.75,-553.64 120.75,-547.64 120.75,-541.64 120.75,-541.64 120.75,-101.64 120.75,-101.64 120.75,-95.64 126.75,-89.64 132.75,-89.64"/>
<text xml:space="preserve" text-anchor="middle" x="446" y="-541.09" font-family="Helvetica,sans-Serif" font-weight="bold" font-size="9.00">lib</text>
</g>
<g id="clust9" class="cluster">
<title>cluster_lib/base_classes</title>
<path fill="#ffffff" stroke="black" stroke-width="2" d="M140.75,-285.64C140.75,-285.64 444.75,-285.64 444.75,-285.64 450.75,-285.64 456.75,-291.64 456.75,-297.64 456.75,-297.64 456.75,-514.64 456.75,-514.64 456.75,-520.64 450.75,-526.64 444.75,-526.64 444.75,-526.64 140.75,-526.64 140.75,-526.64 134.75,-526.64 128.75,-520.64 128.75,-514.64 128.75,-514.64 128.75,-297.64 128.75,-297.64 128.75,-291.64 134.75,-285.64 140.75,-285.64"/>
<text xml:space="preserve" text-anchor="middle" x="292.75" y="-514.09" font-family="Helvetica,sans-Serif" font-weight="bold" font-size="9.00">base_classes</text>
</g>
<g id="clust10" class="cluster">
<title>cluster_lib/factories</title>
<path fill="#ffffff" stroke="black" stroke-width="2" d="M529.5,-97.64C529.5,-97.64 624.5,-97.64 624.5,-97.64 630.5,-97.64 636.5,-103.64 636.5,-109.64 636.5,-109.64 636.5,-140.64 636.5,-140.64 636.5,-146.64 630.5,-152.64 624.5,-152.64 624.5,-152.64 529.5,-152.64 529.5,-152.64 523.5,-152.64 517.5,-146.64 517.5,-140.64 517.5,-140.64 517.5,-109.64 517.5,-109.64 517.5,-103.64 523.5,-97.64 529.5,-97.64"/>
<text xml:space="preserve" text-anchor="middle" x="577" y="-140.09" font-family="Helvetica,sans-Serif" font-weight="bold" font-size="9.00">factories</text>
</g>
<g id="clust11" class="cluster">
<title>cluster_lib/lifecycle_managers</title>
<path fill="#ffffff" stroke="black" stroke-width="2" d="M307.75,-160.64C307.75,-160.64 648.5,-160.64 648.5,-160.64 654.5,-160.64 660.5,-166.64 660.5,-172.64 660.5,-172.64 660.5,-265.64 660.5,-265.64 660.5,-271.64 654.5,-277.64 648.5,-277.64 648.5,-277.64 307.75,-277.64 307.75,-277.64 301.75,-277.64 295.75,-271.64 295.75,-265.64 295.75,-265.64 295.75,-172.64 295.75,-172.64 295.75,-166.64 301.75,-160.64 307.75,-160.64"/>
<text xml:space="preserve" text-anchor="middle" x="478.12" y="-265.09" font-family="Helvetica,sans-Serif" font-weight="bold" font-size="9.00">lifecycle_managers</text>
</g>
<g id="clust12" class="cluster">
<title>cluster_tests</title>
<path fill="#ffffff" stroke="black" stroke-width="2" d="M20,-520.64C20,-520.64 100.75,-520.64 100.75,-520.64 106.75,-520.64 112.75,-526.64 112.75,-532.64 112.75,-532.64 112.75,-563.64 112.75,-563.64 112.75,-569.64 106.75,-575.64 100.75,-575.64 100.75,-575.64 20,-575.64 20,-575.64 14,-575.64 8,-569.64 8,-563.64 8,-563.64 8,-532.64 8,-532.64 8,-526.64 14,-520.64 20,-520.64"/>
<text xml:space="preserve" text-anchor="middle" x="60.38" y="-563.09" font-family="Helvetica,sans-Serif" font-weight="bold" font-size="9.00">tests</text>
</g>
<!-- ../../node_modules/fdir/dist/index.cjs -->
<g id="node1" class="node">
<title>../../node_modules/fdir/dist/index.cjs</title>
<g id="a_node1"><a xlink:href="https://www.npmjs.com/package/fdir" xlink:title="index.cjs">
<polygon fill="#c40b0a" fill-opacity="0.101961" stroke="black" points="875,-577.26 873.4,-579.4 862.17,-579.4 860.56,-577.26 819.25,-577.26 819.25,-558.01 875,-558.01 875,-577.26"/>
<text xml:space="preserve" text-anchor="start" x="827.25" y="-564.71" font-family="Helvetica,sans-Serif" font-size="9.00" fill="#c40b0a">index.cjs</text>
</a>
</g>
</g>
<!-- ../../node_modules/lodash.merge/index.js -->
<g id="node2" class="node">
<title>../../node_modules/lodash.merge/index.js</title>
<g id="a_node2"><a xlink:href="https://www.npmjs.com/package/lodash.merge" xlink:title="index.js">
<polygon fill="#c40b0a" fill-opacity="0.101961" stroke="black" points="874.12,-667.26 872.52,-669.4 861.29,-669.4 859.69,-667.26 820.12,-667.26 820.12,-648.01 874.12,-648.01 874.12,-667.26"/>
<text xml:space="preserve" text-anchor="start" x="829.88" y="-654.71" font-family="Helvetica,sans-Serif" font-size="9.00" fill="#c40b0a">index.js</text>
</a>
</g>
</g>
<!-- buffer -->
<g id="node3" class="node">
<title>buffer</title>
<g id="a_node3"><a xlink:href="https://nodejs.org/api/buffer.html" xlink:title="buffer">
<path fill="#ffffcc" stroke="grey" d="M597.58,-581.26C597.58,-581.26 556.42,-581.26 556.42,-581.26 553.21,-581.26 550,-578.05 550,-574.84 550,-574.84 550,-568.43 550,-568.43 550,-565.22 553.21,-562.01 556.42,-562.01 556.42,-562.01 597.58,-562.01 597.58,-562.01 600.79,-562.01 604,-565.22 604,-568.43 604,-568.43 604,-574.84 604,-574.84 604,-578.05 600.79,-581.26 597.58,-581.26"/>
<text xml:space="preserve" text-anchor="start" x="563.5" y="-568.71" font-family="Helvetica,sans-Serif" font-size="9.00" fill="grey">buffer</text>
</a>
</g>
</g>
<!-- helpers/loader.js -->
<g id="node4" class="node">
<title>helpers/loader.js</title>
<g id="a_node4"><a xlink:href="https://github.com/twyr/entity-value-aggregate-server/src/main/helpers/loader.js" xlink:title="loader.js">
<path fill="#ffffcc" stroke="black" d="M736.46,-589.26C736.46,-589.26 695.29,-589.26 695.29,-589.26 692.08,-589.26 688.88,-586.05 688.88,-582.84 688.88,-582.84 688.88,-576.43 688.88,-576.43 688.88,-573.22 692.08,-570.01 695.29,-570.01 695.29,-570.01 736.46,-570.01 736.46,-570.01 739.67,-570.01 742.88,-573.22 742.88,-576.43 742.88,-576.43 742.88,-582.84 742.88,-582.84 742.88,-586.05 739.67,-589.26 736.46,-589.26"/>
<text xml:space="preserve" text-anchor="start" x="697.88" y="-576.71" font-family="Helvetica,sans-Serif" font-size="9.00">loader.js</text>
</a>
</g>
</g>
<!-- helpers/loader.js&#45;&gt;../../node_modules/fdir/dist/index.cjs -->
<g id="edge1" class="edge">
<title>helpers/loader.js&#45;&gt;../../node_modules/fdir/dist/index.cjs</title>
<path fill="none" stroke="#000000" stroke-opacity="0.200000" d="M743.34,-577.18C763.03,-575.35 790.08,-572.84 811.49,-570.85"/>
<polygon fill="#000000" fill-opacity="0.200000" stroke="#000000" stroke-opacity="0.200000" points="811.51,-572.96 817.29,-570.31 811.13,-568.78 811.51,-572.96"/>
</g>
<!-- path -->
<g id="node5" class="node">
<title>path</title>
<g id="a_node5"><a xlink:href="https://nodejs.org/api/path.html" xlink:title="path">
<path fill="#ffffcc" stroke="grey" d="M867.71,-451.26C867.71,-451.26 826.54,-451.26 826.54,-451.26 823.33,-451.26 820.12,-448.05 820.12,-444.84 820.12,-444.84 820.12,-438.43 820.12,-438.43 820.12,-435.22 823.33,-432.01 826.54,-432.01 826.54,-432.01 867.71,-432.01 867.71,-432.01 870.92,-432.01 874.12,-435.22 874.12,-438.43 874.12,-438.43 874.12,-444.84 874.12,-444.84 874.12,-448.05 870.92,-451.26 867.71,-451.26"/>
<text xml:space="preserve" text-anchor="start" x="836.62" y="-438.71" font-family="Helvetica,sans-Serif" font-size="9.00" fill="grey">path</text>
</a>
</g>
</g>
<!-- helpers/loader.js&#45;&gt;path -->
<g id="edge2" class="edge">
<title>helpers/loader.js&#45;&gt;path</title>
<path fill="none" stroke="#000000" stroke-dasharray="5,2" stroke-opacity="0.200000" d="M726.17,-569.71C748.53,-545.84 805.42,-485.1 832.02,-456.7"/>
<polygon fill="#000000" fill-opacity="0.200000" stroke="#000000" stroke-opacity="0.200000" points="833.31,-458.39 835.88,-452.58 830.24,-455.52 833.31,-458.39"/>
</g>
<!-- index.js -->
<g id="node6" class="node">
<title>index.js</title>
<g id="a_node6"><a xlink:href="https://github.com/twyr/entity-value-aggregate-server/src/main/index.js" xlink:title="index.js">
<path fill="#ffffcc" stroke="black" d="M80.96,-313.26C80.96,-313.26 39.79,-313.26 39.79,-313.26 36.58,-313.26 33.38,-310.05 33.38,-306.84 33.38,-306.84 33.38,-300.43 33.38,-300.43 33.38,-297.22 36.58,-294.01 39.79,-294.01 39.79,-294.01 80.96,-294.01 80.96,-294.01 84.17,-294.01 87.38,-297.22 87.38,-300.43 87.38,-300.43 87.38,-306.84 87.38,-306.84 87.38,-310.05 84.17,-313.26 80.96,-313.26"/>
<text xml:space="preserve" text-anchor="start" x="43.12" y="-300.71" font-family="Helvetica,sans-Serif" font-size="9.00">index.js</text>
</a>
</g>
</g>
<!-- lib/base_classes/evas&#45;base&#45;artifact.js -->
<g id="node7" class="node">
<title>lib/base_classes/evas&#45;base&#45;artifact.js</title>
<g id="a_node7"><a xlink:href="https://github.com/twyr/entity-value-aggregate-server/src/main/lib/base_classes/evas-base-artifact.js" xlink:title="evas&#45;base&#45;artifact.js">
<path fill="#ffffcc" stroke="black" d="M442.33,-375.26C442.33,-375.26 349.92,-375.26 349.92,-375.26 346.71,-375.26 343.5,-372.05 343.5,-368.84 343.5,-368.84 343.5,-362.43 343.5,-362.43 343.5,-359.22 346.71,-356.01 349.92,-356.01 349.92,-356.01 442.33,-356.01 442.33,-356.01 445.54,-356.01 448.75,-359.22 448.75,-362.43 448.75,-362.43 448.75,-368.84 448.75,-368.84 448.75,-372.05 445.54,-375.26 442.33,-375.26"/>
<text xml:space="preserve" text-anchor="start" x="351.5" y="-362.71" font-family="Helvetica,sans-Serif" font-size="9.00">evas&#45;base&#45;artifact.js</text>
</a>
</g>
</g>
<!-- index.js&#45;&gt;lib/base_classes/evas&#45;base&#45;artifact.js -->
<g id="edge3" class="edge">
<title>index.js&#45;&gt;lib/base_classes/evas&#45;base&#45;artifact.js</title>
<path fill="none" stroke="#000000" stroke-width="2" stroke-opacity="0.200000" d="M87.61,-295.53C130.61,-283.6 218.24,-265.05 287.75,-287.64 326.01,-300.07 362.02,-331.82 381.06,-350.76"/>
<polygon fill="#000000" fill-opacity="0.200000" stroke="#000000" stroke-width="2" stroke-opacity="0.200000" points="383.77,-356.5 381.05,-350.75 386.76,-353.55 383.77,-356.5"/>
</g>
<!-- lib/base_classes/evas&#45;base&#45;bounded&#45;context.js -->
<g id="node8" class="node">
<title>lib/base_classes/evas&#45;base&#45;bounded&#45;context.js</title>
<g id="a_node8"><a xlink:href="https://github.com/twyr/entity-value-aggregate-server/src/main/lib/base_classes/evas-base-bounded-context.js" xlink:title="evas&#45;base&#45;bounded&#45;context.js">
<path fill="#ffffcc" stroke="black" d="M281.33,-344.26C281.33,-344.26 143.17,-344.26 143.17,-344.26 139.96,-344.26 136.75,-341.05 136.75,-337.84 136.75,-337.84 136.75,-331.43 136.75,-331.43 136.75,-328.22 139.96,-325.01 143.17,-325.01 143.17,-325.01 281.33,-325.01 281.33,-325.01 284.54,-325.01 287.75,-328.22 287.75,-331.43 287.75,-331.43 287.75,-337.84 287.75,-337.84 287.75,-341.05 284.54,-344.26 281.33,-344.26"/>
<text xml:space="preserve" text-anchor="start" x="144.75" y="-331.71" font-family="Helvetica,sans-Serif" font-size="9.00">evas&#45;base&#45;bounded&#45;context.js</text>
</a>
</g>
</g>
<!-- index.js&#45;&gt;lib/base_classes/evas&#45;base&#45;bounded&#45;context.js -->
<g id="edge4" class="edge">
<title>index.js&#45;&gt;lib/base_classes/evas&#45;base&#45;bounded&#45;context.js</title>
<path fill="none" stroke="#000000" stroke-width="2" stroke-opacity="0.200000" d="M87.84,-311.37C98.07,-314.2 109.9,-317.28 120.75,-319.64 126.69,-320.93 132.88,-322.17 139.1,-323.34"/>
<polygon fill="#000000" fill-opacity="0.200000" stroke="#000000" stroke-width="2" stroke-opacity="0.200000" points="144.49,-326.47 138.97,-323.32 145.25,-322.34 144.49,-326.47"/>
</g>
<!-- lib/base_classes/evas&#45;base&#45;domain.js -->
<g id="node9" class="node">
<title>lib/base_classes/evas&#45;base&#45;domain.js</title>
<g id="a_node9"><a xlink:href="https://github.com/twyr/entity-value-aggregate-server/src/main/lib/base_classes/evas-base-domain.js" xlink:title="evas&#45;base&#45;domain.js">
<path fill="#ffffcc" stroke="black" d="M259.21,-313.26C259.21,-313.26 165.29,-313.26 165.29,-313.26 162.08,-313.26 158.88,-310.05 158.88,-306.84 158.88,-306.84 158.88,-300.43 158.88,-300.43 158.88,-297.22 162.08,-294.01 165.29,-294.01 165.29,-294.01 259.21,-294.01 259.21,-294.01 262.42,-294.01 265.62,-297.22 265.62,-300.43 265.62,-300.43 265.62,-306.84 265.62,-306.84 265.62,-310.05 262.42,-313.26 259.21,-313.26"/>
<text xml:space="preserve" text-anchor="start" x="166.88" y="-300.71" font-family="Helvetica,sans-Serif" font-size="9.00">evas&#45;base&#45;domain.js</text>
</a>
</g>
</g>
<!-- index.js&#45;&gt;lib/base_classes/evas&#45;base&#45;domain.js -->
<g id="edge5" class="edge">
<title>index.js&#45;&gt;lib/base_classes/evas&#45;base&#45;domain.js</title>
<path fill="none" stroke="#000000" stroke-width="2" stroke-opacity="0.200000" d="M87.82,-303.64C105.42,-303.64 129.26,-303.64 151.3,-303.64"/>
<polygon fill="#000000" fill-opacity="0.200000" stroke="#000000" stroke-width="2" stroke-opacity="0.200000" points="157.38,-305.74 151.38,-303.64 157.38,-301.54 157.38,-305.74"/>
</g>
<!-- lib/base_classes/evas&#45;base&#45;event&#45;handler.js -->
<g id="node10" class="node">
<title>lib/base_classes/evas&#45;base&#45;event&#45;handler.js</title>
<g id="a_node10"><a xlink:href="https://github.com/twyr/entity-value-aggregate-server/src/main/lib/base_classes/evas-base-event-handler.js" xlink:title="evas&#45;base&#45;event&#45;handler.js">
<path fill="#ffffcc" stroke="black" d="M273.08,-406.26C273.08,-406.26 151.42,-406.26 151.42,-406.26 148.21,-406.26 145,-403.05 145,-399.84 145,-399.84 145,-393.43 145,-393.43 145,-390.22 148.21,-387.01 151.42,-387.01 151.42,-387.01 273.08,-387.01 273.08,-387.01 276.29,-387.01 279.5,-390.22 279.5,-393.43 279.5,-393.43 279.5,-399.84 279.5,-399.84 279.5,-403.05 276.29,-406.26 273.08,-406.26"/>
<text xml:space="preserve" text-anchor="start" x="153" y="-393.71" font-family="Helvetica,sans-Serif" font-size="9.00">evas&#45;base&#45;event&#45;handler.js</text>
</a>
</g>
</g>
<!-- index.js&#45;&gt;lib/base_classes/evas&#45;base&#45;event&#45;handler.js -->
<g id="edge6" class="edge">
<title>index.js&#45;&gt;lib/base_classes/evas&#45;base&#45;event&#45;handler.js</title>
<path fill="none" stroke="#000000" stroke-width="2" stroke-opacity="0.200000" d="M65.92,-313.73C74.17,-330.8 93.34,-365.13 120.75,-381.64 126.16,-384.9 132.07,-387.5 138.18,-389.59"/>
<polygon fill="#000000" fill-opacity="0.200000" stroke="#000000" stroke-width="2" stroke-opacity="0.200000" points="143.32,-393.36 138.2,-389.59 144.55,-389.35 143.32,-393.36"/>
</g>
<!-- lib/base_classes/evas&#45;base&#45;ingress&#45;surface.js -->
<g id="node11" class="node">
<title>lib/base_classes/evas&#45;base&#45;ingress&#45;surface.js</title>
<g id="a_node11"><a xlink:href="https://github.com/twyr/entity-value-aggregate-server/src/main/lib/base_classes/evas-base-ingress-surface.js" xlink:title="evas&#45;base&#45;ingress&#45;surface.js">
<path fill="#ffffcc" stroke="black" d="M276.46,-468.26C276.46,-468.26 148.04,-468.26 148.04,-468.26 144.83,-468.26 141.62,-465.05 141.62,-461.84 141.62,-461.84 141.62,-455.43 141.62,-455.43 141.62,-452.22 144.83,-449.01 148.04,-449.01 148.04,-449.01 276.46,-449.01 276.46,-449.01 279.67,-449.01 282.88,-452.22 282.88,-455.43 282.88,-455.43 282.88,-461.84 282.88,-461.84 282.88,-465.05 279.67,-468.26 276.46,-468.26"/>
<text xml:space="preserve" text-anchor="start" x="149.62" y="-455.71" font-family="Helvetica,sans-Serif" font-size="9.00">evas&#45;base&#45;ingress&#45;surface.js</text>
</a>
</g>
</g>
<!-- index.js&#45;&gt;lib/base_classes/evas&#45;base&#45;ingress&#45;surface.js -->
<g id="edge7" class="edge">
<title>index.js&#45;&gt;lib/base_classes/evas&#45;base&#45;ingress&#45;surface.js</title>
<path fill="none" stroke="#000000" stroke-width="2" stroke-opacity="0.200000" d="M62.39,-313.72C65.61,-339.84 78.02,-409.99 120.75,-443.64 125.06,-447.03 129.85,-449.78 134.91,-452"/>
<polygon fill="#000000" fill-opacity="0.200000" stroke="#000000" stroke-width="2" stroke-opacity="0.200000" points="139.76,-456.14 134.93,-452.01 141.28,-452.22 139.76,-456.14"/>
</g>
<!-- lib/base_classes/evas&#45;base&#45;middleware.js -->
<g id="node12" class="node">
<title>lib/base_classes/evas&#45;base&#45;middleware.js</title>
<g id="a_node12"><a xlink:href="https://github.com/twyr/entity-value-aggregate-server/src/main/lib/base_classes/evas-base-middleware.js" xlink:title="evas&#45;base&#45;middleware.js">
<path fill="#ffffcc" stroke="black" d="M268.58,-437.26C268.58,-437.26 155.92,-437.26 155.92,-437.26 152.71,-437.26 149.5,-434.05 149.5,-430.84 149.5,-430.84 149.5,-424.43 149.5,-424.43 149.5,-421.22 152.71,-418.01 155.92,-418.01 155.92,-418.01 268.58,-418.01 268.58,-418.01 271.79,-418.01 275,-421.22 275,-424.43 275,-424.43 275,-430.84 275,-430.84 275,-434.05 271.79,-437.26 268.58,-437.26"/>
<text xml:space="preserve" text-anchor="start" x="157.5" y="-424.71" font-family="Helvetica,sans-Serif" font-size="9.00">evas&#45;base&#45;middleware.js</text>
</a>
</g>
</g>
<!-- index.js&#45;&gt;lib/base_classes/evas&#45;base&#45;middleware.js -->
<g id="edge8" class="edge">
<title>index.js&#45;&gt;lib/base_classes/evas&#45;base&#45;middleware.js</title>
<path fill="none" stroke="#000000" stroke-width="2" stroke-opacity="0.200000" d="M63.7,-313.75C69.31,-335.71 85.8,-387.79 120.75,-412.64 127.34,-417.32 134.88,-420.74 142.73,-423.21"/>
<polygon fill="#000000" fill-opacity="0.200000" stroke="#000000" stroke-width="2" stroke-opacity="0.200000" points="147.85,-426.82 142.64,-423.18 148.98,-422.77 147.85,-426.82"/>
</g>
<!-- lib/base_classes/evas&#45;base&#45;repository.js -->
<g id="node13" class="node">
<title>lib/base_classes/evas&#45;base&#45;repository.js</title>
<g id="a_node13"><a xlink:href="https://github.com/twyr/entity-value-aggregate-server/src/main/lib/base_classes/evas-base-repository.js" xlink:title="evas&#45;base&#45;repository.js">
<path fill="#ffffcc" stroke="black" d="M264.08,-499.26C264.08,-499.26 160.42,-499.26 160.42,-499.26 157.21,-499.26 154,-496.05 154,-492.84 154,-492.84 154,-486.43 154,-486.43 154,-483.22 157.21,-480.01 160.42,-480.01 160.42,-480.01 264.08,-480.01 264.08,-480.01 267.29,-480.01 270.5,-483.22 270.5,-486.43 270.5,-486.43 270.5,-492.84 270.5,-492.84 270.5,-496.05 267.29,-499.26 264.08,-499.26"/>
<text xml:space="preserve" text-anchor="start" x="162" y="-486.71" font-family="Helvetica,sans-Serif" font-size="9.00">evas&#45;base&#45;repository.js</text>
</a>
</g>
</g>
<!-- index.js&#45;&gt;lib/base_classes/evas&#45;base&#45;repository.js -->
<g id="edge9" class="edge">
<title>index.js&#45;&gt;lib/base_classes/evas&#45;base&#45;repository.js</title>
<path fill="none" stroke="#000000" stroke-width="2" stroke-opacity="0.200000" d="M61.53,-313.67C62.59,-343.44 70.05,-431.9 120.75,-474.64 128.2,-480.91 137.25,-485.05 146.72,-487.71"/>
<polygon fill="#000000" fill-opacity="0.200000" stroke="#000000" stroke-width="2" stroke-opacity="0.200000" points="152.2,-491.19 146.86,-487.74 153.19,-487.11 152.2,-491.19"/>
</g>
<!-- lib/base_classes/evas&#45;base&#45;surface.js -->
<g id="node14" class="node">
<title>lib/base_classes/evas&#45;base&#45;surface.js</title>
<g id="a_node14"><a xlink:href="https://github.com/twyr/entity-value-aggregate-server/src/main/lib/base_classes/evas-base-surface.js" xlink:title="evas&#45;base&#45;surface.js">
<path fill="#ffffcc" stroke="black" d="M258.83,-375.26C258.83,-375.26 165.67,-375.26 165.67,-375.26 162.46,-375.26 159.25,-372.05 159.25,-368.84 159.25,-368.84 159.25,-362.43 159.25,-362.43 159.25,-359.22 162.46,-356.01 165.67,-356.01 165.67,-356.01 258.83,-356.01 258.83,-356.01 262.04,-356.01 265.25,-359.22 265.25,-362.43 265.25,-362.43 265.25,-368.84 265.25,-368.84 265.25,-372.05 262.04,-375.26 258.83,-375.26"/>
<text xml:space="preserve" text-anchor="start" x="167.25" y="-362.71" font-family="Helvetica,sans-Serif" font-size="9.00">evas&#45;base&#45;surface.js</text>
</a>
</g>
</g>
<!-- index.js&#45;&gt;lib/base_classes/evas&#45;base&#45;surface.js -->
<g id="edge10" class="edge">
<title>index.js&#45;&gt;lib/base_classes/evas&#45;base&#45;surface.js</title>
<path fill="none" stroke="#000000" stroke-width="2" stroke-opacity="0.200000" d="M70.83,-313.7C81.75,-324.66 100.8,-341.8 120.75,-350.64 130.55,-354.97 141.44,-358.07 152.18,-360.27"/>
<polygon fill="#000000" fill-opacity="0.200000" stroke="#000000" stroke-width="2" stroke-opacity="0.200000" points="157.83,-363.48 152.33,-360.3 158.61,-359.35 157.83,-363.48"/>
</g>
<!-- lib/evas&#45;base&#45;class.js -->
<g id="node15" class="node">
<title>lib/evas&#45;base&#45;class.js</title>
<g id="a_node15"><a xlink:href="https://github.com/twyr/entity-value-aggregate-server/src/main/lib/evas-base-class.js" xlink:title="evas&#45;base&#45;class.js">
<path fill="#ffffcc" stroke="black" d="M756.83,-179.26C756.83,-179.26 674.92,-179.26 674.92,-179.26 671.71,-179.26 668.5,-176.05 668.5,-172.84 668.5,-172.84 668.5,-166.43 668.5,-166.43 668.5,-163.22 671.71,-160.01 674.92,-160.01 674.92,-160.01 756.83,-160.01 756.83,-160.01 760.04,-160.01 763.25,-163.22 763.25,-166.43 763.25,-166.43 763.25,-172.84 763.25,-172.84 763.25,-176.05 760.04,-179.26 756.83,-179.26"/>
<text xml:space="preserve" text-anchor="start" x="676.5" y="-166.71" font-family="Helvetica,sans-Serif" font-size="9.00">evas&#45;base&#45;class.js</text>
</a>
</g>
</g>
<!-- index.js&#45;&gt;lib/evas&#45;base&#45;class.js -->
<g id="edge11" class="edge">
<title>index.js&#45;&gt;lib/evas&#45;base&#45;class.js</title>
<path fill="none" stroke="#000000" stroke-width="2" stroke-opacity="0.200000" d="M62.73,-293.58C68.02,-255.84 88.67,-123.47 120.75,-98.64 310.45,48.2 447.12,15 660.5,-94.64 684.58,-107.01 700.5,-135.54 708.58,-153.63"/>
<polygon fill="#000000" fill-opacity="0.200000" stroke="#000000" stroke-width="2" stroke-opacity="0.200000" points="708.88,-159.67 708.46,-153.33 712.75,-158.02 708.88,-159.67"/>
</g>
<!-- lib/factories/evas&#45;base&#45;factory.js -->
<g id="node16" class="node">
<title>lib/factories/evas&#45;base&#45;factory.js</title>
<g id="a_node16"><a xlink:href="https://github.com/twyr/entity-value-aggregate-server/src/main/lib/factories/evas-base-factory.js" xlink:title="evas&#45;base&#45;factory.js">
<path fill="#ffffcc" stroke="black" d="M622.08,-125.26C622.08,-125.26 531.92,-125.26 531.92,-125.26 528.71,-125.26 525.5,-122.05 525.5,-118.84 525.5,-118.84 525.5,-112.43 525.5,-112.43 525.5,-109.22 528.71,-106.01 531.92,-106.01 531.92,-106.01 622.08,-106.01 622.08,-106.01 625.29,-106.01 628.5,-109.22 628.5,-112.43 628.5,-112.43 628.5,-118.84 628.5,-118.84 628.5,-122.05 625.29,-125.26 622.08,-125.26"/>
<text xml:space="preserve" text-anchor="start" x="533.5" y="-112.71" font-family="Helvetica,sans-Serif" font-size="9.00">evas&#45;base&#45;factory.js</text>
</a>
</g>
</g>
<!-- index.js&#45;&gt;lib/factories/evas&#45;base&#45;factory.js -->
<g id="edge12" class="edge">
<title>index.js&#45;&gt;lib/factories/evas&#45;base&#45;factory.js</title>
<path fill="none" stroke="#000000" stroke-width="2" stroke-opacity="0.200000" d="M62.24,-293.79C65.12,-267.62 76.83,-196.16 120.75,-163.64 239.14,-75.97 424.76,-90.09 518.19,-104.56"/>
<polygon fill="#000000" fill-opacity="0.200000" stroke="#000000" stroke-width="2" stroke-opacity="0.200000" points="523.71,-107.56 518.11,-104.55 524.36,-103.41 523.71,-107.56"/>
</g>
<!-- lib/lifecycle_managers/bounded&#45;context&#45;lifecycle&#45;manager.js -->
<g id="node17" class="node">
<title>lib/lifecycle_managers/bounded&#45;context&#45;lifecycle&#45;manager.js</title>
<g id="a_node17"><a xlink:href="https://github.com/twyr/entity-value-aggregate-server/src/main/lib/lifecycle_managers/bounded-context-lifecycle-manager.js" xlink:title="bounded&#45;context&#45;lifecycle&#45;manager.js">
<path fill="#ffffcc" stroke="black" d="M482.08,-250.26C482.08,-250.26 310.17,-250.26 310.17,-250.26 306.96,-250.26 303.75,-247.05 303.75,-243.84 303.75,-243.84 303.75,-237.43 303.75,-237.43 303.75,-234.22 306.96,-231.01 310.17,-231.01 310.17,-231.01 482.08,-231.01 482.08,-231.01 485.29,-231.01 488.5,-234.22 488.5,-237.43 488.5,-237.43 488.5,-243.84 488.5,-243.84 488.5,-247.05 485.29,-250.26 482.08,-250.26"/>
<text xml:space="preserve" text-anchor="start" x="311.75" y="-237.71" font-family="Helvetica,sans-Serif" font-size="9.00">bounded&#45;context&#45;lifecycle&#45;manager.js</text>
</a>
</g>
</g>
<!-- index.js&#45;&gt;lib/lifecycle_managers/bounded&#45;context&#45;lifecycle&#45;manager.js -->
<g id="edge13" class="edge">
<title>index.js&#45;&gt;lib/lifecycle_managers/bounded&#45;context&#45;lifecycle&#45;manager.js</title>
<path fill="none" stroke="#000000" stroke-width="2" stroke-opacity="0.200000" d="M77.37,-293.62C88.97,-286.85 105.27,-278.32 120.75,-273.64 177.44,-256.48 243.27,-248.2 296.23,-244.22"/>
<polygon fill="#000000" fill-opacity="0.200000" stroke="#000000" stroke-width="2" stroke-opacity="0.200000" points="302.44,-245.88 296.3,-244.22 302.13,-241.69 302.44,-245.88"/>
</g>
<!-- lib/lifecycle_managers/domain&#45;lifecycle&#45;manager.js -->
<g id="node18" class="node">
<title>lib/lifecycle_managers/domain&#45;lifecycle&#45;manager.js</title>
<g id="a_node18"><a xlink:href="https://github.com/twyr/entity-value-aggregate-server/src/main/lib/lifecycle_managers/domain-lifecycle-manager.js" xlink:title="domain&#45;lifecycle&#45;manager.js">
<path fill="#ffffcc" stroke="black" d="M459.96,-219.26C459.96,-219.26 332.29,-219.26 332.29,-219.26 329.08,-219.26 325.88,-216.05 325.88,-212.84 325.88,-212.84 325.88,-206.43 325.88,-206.43 325.88,-203.22 329.08,-200.01 332.29,-200.01 332.29,-200.01 459.96,-200.01 459.96,-200.01 463.17,-200.01 466.38,-203.22 466.38,-206.43 466.38,-206.43 466.38,-212.84 466.38,-212.84 466.38,-216.05 463.17,-219.26 459.96,-219.26"/>
<text xml:space="preserve" text-anchor="start" x="333.88" y="-206.71" font-family="Helvetica,sans-Serif" font-size="9.00">domain&#45;lifecycle&#45;manager.js</text>
</a>
</g>
</g>
<!-- index.js&#45;&gt;lib/lifecycle_managers/domain&#45;lifecycle&#45;manager.js -->
<g id="edge14" class="edge">
<title>index.js&#45;&gt;lib/lifecycle_managers/domain&#45;lifecycle&#45;manager.js</title>
<path fill="none" stroke="#000000" stroke-width="2" stroke-opacity="0.200000" d="M67.66,-293.82C77.24,-279.8 96.91,-254.43 120.75,-242.64 182.53,-212.08 261.38,-205.43 318.68,-205.47"/>
<polygon fill="#000000" fill-opacity="0.200000" stroke="#000000" stroke-width="2" stroke-opacity="0.200000" points="324.55,-207.6 318.56,-205.47 324.57,-203.4 324.55,-207.6"/>
</g>
<!-- lib/lifecycle_managers/server&#45;lifecycle&#45;manager.js -->
<g id="node19" class="node">
<title>lib/lifecycle_managers/server&#45;lifecycle&#45;manager.js</title>
<g id="a_node19"><a xlink:href="https://github.com/twyr/entity-value-aggregate-server/src/main/lib/lifecycle_managers/server-lifecycle-manager.js" xlink:title="server&#45;lifecycle&#45;manager.js">
<path fill="#ffffcc" stroke="black" d="M456.96,-188.26C456.96,-188.26 335.29,-188.26 335.29,-188.26 332.08,-188.26 328.88,-185.05 328.88,-181.84 328.88,-181.84 328.88,-175.43 328.88,-175.43 328.88,-172.22 332.08,-169.01 335.29,-169.01 335.29,-169.01 456.96,-169.01 456.96,-169.01 460.17,-169.01 463.38,-172.22 463.38,-175.43 463.38,-175.43 463.38,-181.84 463.38,-181.84 463.38,-185.05 460.17,-188.26 456.96,-188.26"/>
<text xml:space="preserve" text-anchor="start" x="336.88" y="-175.71" font-family="Helvetica,sans-Serif" font-size="9.00">server&#45;lifecycle&#45;manager.js</text>
</a>
</g>
</g>
<!-- index.js&#45;&gt;lib/lifecycle_managers/server&#45;lifecycle&#45;manager.js -->
<g id="edge15" class="edge">
<title>index.js&#45;&gt;lib/lifecycle_managers/server&#45;lifecycle&#45;manager.js</title>
<path fill="none" stroke="#000000" stroke-width="2" stroke-opacity="0.200000" d="M64.02,-293.53C70.08,-272.64 87.11,-224.86 120.75,-203.64 180.51,-165.92 262.68,-163.41 321.49,-168.04"/>
<polygon fill="#000000" fill-opacity="0.200000" stroke="#000000" stroke-width="2" stroke-opacity="0.200000" points="327.37,-170.64 321.57,-168.04 327.72,-166.46 327.37,-170.64"/>
</g>
<!-- lib/base_classes/evas&#45;base&#45;artifact.js&#45;&gt;lib/evas&#45;base&#45;class.js -->
<g id="edge16" class="edge">
<title>lib/base_classes/evas&#45;base&#45;artifact.js&#45;&gt;lib/evas&#45;base&#45;class.js</title>
<path fill="none" stroke="#000000" stroke-width="2" stroke-opacity="0.200000" d="M449.02,-360.94C506.81,-353.21 600.03,-333.01 660.5,-280.64 689,-255.96 703.99,-212.88 710.59,-188.27"/>
<polygon fill="#000000" fill-opacity="0.200000" stroke="#000000" stroke-width="2" stroke-opacity="0.200000" points="712.62,-188.8 712.05,-182.47 708.55,-187.78 712.62,-188.8"/>
</g>
<!-- lib/base_classes/evas&#45;base&#45;bounded&#45;context.js&#45;&gt;lib/base_classes/evas&#45;base&#45;artifact.js -->
<g id="edge18" class="edge">
<title>lib/base_classes/evas&#45;base&#45;bounded&#45;context.js&#45;&gt;lib/base_classes/evas&#45;base&#45;artifact.js</title>
<path fill="none" stroke="#000000" stroke-width="2" stroke-opacity="0.200000" d="M272.55,-344.74C292.42,-348.13 314.58,-351.91 334.55,-355.31"/>
<polygon fill="#000000" fill-opacity="0.200000" stroke="#000000" stroke-width="2" stroke-opacity="0.200000" points="334,-357.35 340.26,-356.29 334.7,-353.21 334,-357.35"/>
</g>
<!-- lib/base_classes/evas&#45;base&#45;bounded&#45;context.js&#45;&gt;lib/lifecycle_managers/bounded&#45;context&#45;lifecycle&#45;manager.js -->
<g id="edge17" class="edge">
<title>lib/base_classes/evas&#45;base&#45;bounded&#45;context.js&#45;&gt;lib/lifecycle_managers/bounded&#45;context&#45;lifecycle&#45;manager.js</title>
<path fill="none" stroke="#000000" stroke-width="2" stroke-opacity="0.200000" d="M281.67,-324.62C283.83,-323.14 285.87,-321.49 287.75,-319.64 299.73,-307.82 285.02,-295.59 295.75,-282.64 306.84,-269.25 322.96,-260.05 338.99,-253.76"/>
<polygon fill="#000000" fill-opacity="0.200000" stroke="#000000" stroke-width="2" stroke-opacity="0.200000" points="339.57,-255.78 344.5,-251.76 338.14,-251.83 339.57,-255.78"/>
</g>
<!-- lib/base_classes/evas&#45;base&#45;domain.js&#45;&gt;lib/base_classes/evas&#45;base&#45;artifact.js -->
<g id="edge20" class="edge">
<title>lib/base_classes/evas&#45;base&#45;domain.js&#45;&gt;lib/base_classes/evas&#45;base&#45;artifact.js</title>
<path fill="none" stroke="#000000" stroke-width="2" stroke-opacity="0.200000" d="M266.11,-312.82C273.44,-314.52 280.83,-316.45 287.75,-318.64 315.85,-327.5 346.51,-341.37 367.84,-351.75"/>
<polygon fill="#000000" fill-opacity="0.200000" stroke="#000000" stroke-width="2" stroke-opacity="0.200000" points="366.79,-353.58 373.11,-354.34 368.65,-349.81 366.79,-353.58"/>
</g>
<!-- lib/base_classes/evas&#45;base&#45;domain.js&#45;&gt;lib/lifecycle_managers/domain&#45;lifecycle&#45;manager.js -->
<g id="edge19" class="edge">
<title>lib/base_classes/evas&#45;base&#45;domain.js&#45;&gt;lib/lifecycle_managers/domain&#45;lifecycle&#45;manager.js</title>
<path fill="none" stroke="#000000" stroke-width="2" stroke-opacity="0.200000" d="M220.33,-293.63C233.18,-276.35 262.11,-241.17 295.75,-224.64 302.39,-221.37 309.56,-218.78 316.9,-216.72"/>
<polygon fill="#000000" fill-opacity="0.200000" stroke="#000000" stroke-width="2" stroke-opacity="0.200000" points="317.32,-218.78 322.63,-215.28 316.3,-214.71 317.32,-218.78"/>
</g>
<!-- lib/base_classes/evas&#45;base&#45;event&#45;handler.js&#45;&gt;lib/base_classes/evas&#45;base&#45;artifact.js -->
<g id="edge21" class="edge">
<title>lib/base_classes/evas&#45;base&#45;event&#45;handler.js&#45;&gt;lib/base_classes/evas&#45;base&#45;artifact.js</title>
<path fill="none" stroke="#000000" stroke-width="2" stroke-opacity="0.200000" d="M272.55,-386.53C292.42,-383.14 314.58,-379.36 334.55,-375.96"/>
<polygon fill="#000000" fill-opacity="0.200000" stroke="#000000" stroke-width="2" stroke-opacity="0.200000" points="334.7,-378.07 340.26,-374.99 334,-373.93 334.7,-378.07"/>
</g>
<!-- lib/base_classes/evas&#45;base&#45;ingress&#45;surface.js&#45;&gt;../../node_modules/lodash.merge/index.js -->
<g id="edge23" class="edge">
<title>lib/base_classes/evas&#45;base&#45;ingress&#45;surface.js&#45;&gt;../../node_modules/lodash.merge/index.js</title>
<g id="a_edge23"><a xlink:title="no&#45;non&#45;package&#45;json">
<path fill="none" stroke="orange" d="M271.85,-468.74C277.29,-470.18 282.66,-471.81 287.75,-473.64 389.1,-509.98 400.18,-551.21 501.5,-587.64 611.64,-627.24 750.08,-646.78 812.67,-654.1"/>
<polygon fill="orange" stroke="orange" points="812.22,-656.16 818.42,-654.76 812.7,-651.99 812.22,-656.16"/>
</a>
</g>
<text xml:space="preserve" text-anchor="middle" x="487.6" y="-590.12" font-family="Helvetica,sans-Serif" font-size="9.00" fill="orange">no&#45;non&#45;package&#45;json</text>
</g>
<!-- lib/base_classes/evas&#45;base&#45;ingress&#45;surface.js&#45;&gt;lib/base_classes/evas&#45;base&#45;artifact.js -->
<g id="edge22" class="edge">
<title>lib/base_classes/evas&#45;base&#45;ingress&#45;surface.js&#45;&gt;lib/base_classes/evas&#45;base&#45;artifact.js</title>
<path fill="none" stroke="#000000" stroke-width="2" stroke-opacity="0.200000" d="M274.5,-448.55C279.06,-447.12 283.52,-445.49 287.75,-443.64 323.08,-428.14 358.13,-399.54 378.15,-381.62"/>
<polygon fill="#000000" fill-opacity="0.200000" stroke="#000000" stroke-width="2" stroke-opacity="0.200000" points="379.56,-383.17 382.58,-377.58 376.73,-380.07 379.56,-383.17"/>
</g>
<!-- lib/base_classes/evas&#45;base&#45;middleware.js&#45;&gt;lib/base_classes/evas&#45;base&#45;artifact.js -->
<g id="edge24" class="edge">
<title>lib/base_classes/evas&#45;base&#45;middleware.js&#45;&gt;lib/base_classes/evas&#45;base&#45;artifact.js</title>
<path fill="none" stroke="#000000" stroke-width="2" stroke-opacity="0.200000" d="M269.71,-417.6C275.85,-416.12 281.96,-414.46 287.75,-412.64 315.85,-403.77 346.51,-389.9 367.84,-379.52"/>
<polygon fill="#000000" fill-opacity="0.200000" stroke="#000000" stroke-width="2" stroke-opacity="0.200000" points="368.65,-381.47 373.11,-376.93 366.79,-377.7 368.65,-381.47"/>
</g>
<!-- lib/base_classes/evas&#45;base&#45;repository.js&#45;&gt;../../node_modules/lodash.merge/index.js -->
<g id="edge26" class="edge">
<title>lib/base_classes/evas&#45;base&#45;repository.js&#45;&gt;../../node_modules/lodash.merge/index.js</title>
<g id="a_edge26"><a xlink:title="no&#45;non&#45;package&#45;json">
<path fill="none" stroke="orange" d="M215.08,-499.4C220.93,-527.48 242.04,-608.61 295.75,-641.64 464.82,-745.6 721.68,-691.45 812.71,-667.27"/>
<polygon fill="orange" stroke="orange" points="813.03,-669.36 818.27,-665.77 811.93,-665.31 813.03,-669.36"/>
</a>
</g>
<text xml:space="preserve" text-anchor="middle" x="463.32" y="-693.29" font-family="Helvetica,sans-Serif" font-size="9.00" fill="orange">no&#45;non&#45;package&#45;json</text>
</g>
<!-- lib/base_classes/evas&#45;base&#45;repository.js&#45;&gt;lib/base_classes/evas&#45;base&#45;artifact.js -->
<g id="edge25" class="edge">
<title>lib/base_classes/evas&#45;base&#45;repository.js&#45;&gt;lib/base_classes/evas&#45;base&#45;artifact.js</title>
<path fill="none" stroke="#000000" stroke-width="2" stroke-opacity="0.200000" d="M270.62,-481.74C276.59,-479.86 282.41,-477.52 287.75,-474.64 329.71,-451.94 365.63,-407.46 383.35,-382.92"/>
<polygon fill="#000000" fill-opacity="0.200000" stroke="#000000" stroke-width="2" stroke-opacity="0.200000" points="384.95,-384.29 386.69,-378.17 381.52,-381.86 384.95,-384.29"/>
</g>
<!-- lib/base_classes/evas&#45;base&#45;surface.js&#45;&gt;lib/base_classes/evas&#45;base&#45;artifact.js -->
<g id="edge27" class="edge">
<title>lib/base_classes/evas&#45;base&#45;surface.js&#45;&gt;lib/base_classes/evas&#45;base&#45;artifact.js</title>
<path fill="none" stroke="#000000" stroke-width="2" stroke-opacity="0.200000" d="M265.37,-365.64C286.96,-365.64 312.15,-365.64 334.55,-365.64"/>
<polygon fill="#000000" fill-opacity="0.200000" stroke="#000000" stroke-width="2" stroke-opacity="0.200000" points="334.29,-367.74 340.29,-365.64 334.29,-363.54 334.29,-367.74"/>
</g>
<!-- lib/factories/evas&#45;base&#45;factory.js&#45;&gt;lib/evas&#45;base&#45;class.js -->
<g id="edge28" class="edge">
<title>lib/factories/evas&#45;base&#45;factory.js&#45;&gt;lib/evas&#45;base&#45;class.js</title>
<path fill="none" stroke="#000000" stroke-width="2" stroke-opacity="0.200000" d="M603.42,-125.67C625.42,-134.34 657.37,-146.95 681.43,-156.44"/>
<polygon fill="#000000" fill-opacity="0.200000" stroke="#000000" stroke-width="2" stroke-opacity="0.200000" points="680.42,-158.3 686.77,-158.55 681.96,-154.39 680.42,-158.3"/>
</g>
<!-- lib/lifecycle_managers/bounded&#45;context&#45;lifecycle&#45;manager.js&#45;&gt;buffer -->
<g id="edge31" class="edge">
<title>lib/lifecycle_managers/bounded&#45;context&#45;lifecycle&#45;manager.js&#45;&gt;buffer</title>
<path fill="none" stroke="#000000" stroke-dasharray="5,2" stroke-opacity="0.200000" d="M436.82,-250.72C454.84,-257.14 475.08,-267.24 488.5,-282.64 560.45,-365.17 573.24,-505.41 575.51,-554.25"/>
<polygon fill="#000000" fill-opacity="0.200000" stroke="#000000" stroke-opacity="0.200000" points="573.4,-554.11 575.74,-560.02 577.6,-553.94 573.4,-554.11"/>
</g>
<!-- lib/lifecycle_managers/bounded&#45;context&#45;lifecycle&#45;manager.js&#45;&gt;lib/factories/evas&#45;base&#45;factory.js -->
<g id="edge29" class="edge">
<title>lib/lifecycle_managers/bounded&#45;context&#45;lifecycle&#45;manager.js&#45;&gt;lib/factories/evas&#45;base&#45;factory.js</title>
<path fill="none" stroke="#000000" stroke-width="2" stroke-opacity="0.200000" d="M482.62,-230.54C484.69,-229.06 486.66,-227.43 488.5,-225.64 510.54,-204.17 483.54,-182.62 501.5,-157.64 510.4,-145.26 524.14,-136.05 537.42,-129.46"/>
<polygon fill="#000000" fill-opacity="0.200000" stroke="#000000" stroke-width="2" stroke-opacity="0.200000" points="538.26,-131.39 542.83,-126.97 536.5,-127.57 538.26,-131.39"/>
</g>
<!-- lib/lifecycle_managers/evas&#45;base&#45;lifecycle&#45;manager.js -->
<g id="node20" class="node">
<title>lib/lifecycle_managers/evas&#45;base&#45;lifecycle&#45;manager.js</title>
<g id="a_node20"><a xlink:href="https://github.com/twyr/entity-value-aggregate-server/src/main/lib/lifecycle_managers/evas-base-lifecycle-manager.js" xlink:title="evas&#45;base&#45;lifecycle&#45;manager.js">
<path fill="#ffffcc" stroke="black" d="M646.08,-234.26C646.08,-234.26 507.92,-234.26 507.92,-234.26 504.71,-234.26 501.5,-231.05 501.5,-227.84 501.5,-227.84 501.5,-221.43 501.5,-221.43 501.5,-218.22 504.71,-215.01 507.92,-215.01 507.92,-215.01 646.08,-215.01 646.08,-215.01 649.29,-215.01 652.5,-218.22 652.5,-221.43 652.5,-221.43 652.5,-227.84 652.5,-227.84 652.5,-231.05 649.29,-234.26 646.08,-234.26"/>
<text xml:space="preserve" text-anchor="start" x="509.5" y="-221.71" font-family="Helvetica,sans-Serif" font-size="9.00">evas&#45;base&#45;lifecycle&#45;manager.js</text>
</a>
</g>
</g>
<!-- lib/lifecycle_managers/bounded&#45;context&#45;lifecycle&#45;manager.js&#45;&gt;lib/lifecycle_managers/evas&#45;base&#45;lifecycle&#45;manager.js -->
<g id="edge30" class="edge">
<title>lib/lifecycle_managers/bounded&#45;context&#45;lifecycle&#45;manager.js&#45;&gt;lib/lifecycle_managers/evas&#45;base&#45;lifecycle&#45;manager.js</title>
<path fill="none" stroke="#000000" stroke-width="2" stroke-opacity="0.200000" d="M488.92,-232.43C490.08,-232.32 491.24,-232.22 492.39,-232.11"/>
<polygon fill="#000000" fill-opacity="0.200000" stroke="#000000" stroke-width="2" stroke-opacity="0.200000" points="492.41,-234.22 498.2,-231.6 492.04,-230.04 492.41,-234.22"/>
</g>
<!-- lib/lifecycle_managers/domain&#45;lifecycle&#45;manager.js&#45;&gt;lib/factories/evas&#45;base&#45;factory.js -->
<g id="edge32" class="edge">
<title>lib/lifecycle_managers/domain&#45;lifecycle&#45;manager.js&#45;&gt;lib/factories/evas&#45;base&#45;factory.js</title>
<path fill="none" stroke="#000000" stroke-width="2" stroke-opacity="0.200000" d="M466.52,-206.47C474.52,-203.82 482.09,-200.01 488.5,-194.64 501.86,-183.44 490.3,-170.99 501.5,-157.64 511.71,-145.46 526.4,-136.13 540.04,-129.38"/>
<polygon fill="#000000" fill-opacity="0.200000" stroke="#000000" stroke-width="2" stroke-opacity="0.200000" points="540.61,-131.43 545.16,-126.99 538.84,-127.63 540.61,-131.43"/>
</g>
<!-- lib/lifecycle_managers/domain&#45;lifecycle&#45;manager.js&#45;&gt;lib/lifecycle_managers/evas&#45;base&#45;lifecycle&#45;manager.js -->
<g id="edge33" class="edge">
<title>lib/lifecycle_managers/domain&#45;lifecycle&#45;manager.js&#45;&gt;lib/lifecycle_managers/evas&#45;base&#45;lifecycle&#45;manager.js</title>
<path fill="none" stroke="#000000" stroke-width="2" stroke-opacity="0.200000" d="M466.79,-215.48C475.17,-216.18 483.78,-216.9 492.33,-217.62"/>
<polygon fill="#000000" fill-opacity="0.200000" stroke="#000000" stroke-width="2" stroke-opacity="0.200000" points="492.02,-219.7 498.18,-218.11 492.38,-215.52 492.02,-219.7"/>
</g>
<!-- lib/lifecycle_managers/server&#45;lifecycle&#45;manager.js&#45;&gt;lib/factories/evas&#45;base&#45;factory.js -->
<g id="edge37" class="edge">
<title>lib/lifecycle_managers/server&#45;lifecycle&#45;manager.js&#45;&gt;lib/factories/evas&#45;base&#45;factory.js</title>
<path fill="none" stroke="#000000" stroke-width="2" stroke-opacity="0.200000" d="M425.86,-168.51C456.64,-157.68 505.56,-140.45 539.14,-128.62"/>
<polygon fill="#000000" fill-opacity="0.200000" stroke="#000000" stroke-width="2" stroke-opacity="0.200000" points="539.52,-130.71 544.48,-126.74 538.12,-126.75 539.52,-130.71"/>
</g>
<!-- lib/lifecycle_managers/server&#45;lifecycle&#45;manager.js&#45;&gt;lib/lifecycle_managers/evas&#45;base&#45;lifecycle&#45;manager.js -->
<g id="edge38" class="edge">
<title>lib/lifecycle_managers/server&#45;lifecycle&#45;manager.js&#45;&gt;lib/lifecycle_managers/evas&#45;base&#45;lifecycle&#45;manager.js</title>
<path fill="none" stroke="#000000" stroke-width="2" stroke-opacity="0.200000" d="M463.79,-188.16C472.16,-189.77 480.56,-191.6 488.5,-193.64 506.98,-198.39 527.07,-205.37 543.34,-211.51"/>
<polygon fill="#000000" fill-opacity="0.200000" stroke="#000000" stroke-width="2" stroke-opacity="0.200000" points="542.29,-213.35 548.64,-213.54 543.79,-209.43 542.29,-213.35"/>
</g>
<!-- lib/lifecycle_managers/evas&#45;base&#45;lifecycle&#45;manager.js&#45;&gt;helpers/loader.js -->
<g id="edge34" class="edge">
<title>lib/lifecycle_managers/evas&#45;base&#45;lifecycle&#45;manager.js&#45;&gt;helpers/loader.js</title>
<path fill="none" stroke="#000000" stroke-width="2" stroke-opacity="0.200000" d="M581.8,-234.5C600.53,-283.07 683,-496.97 707.8,-561.28"/>
<polygon fill="#000000" fill-opacity="0.200000" stroke="#000000" stroke-width="2" stroke-opacity="0.200000" points="705.82,-561.98 709.94,-566.83 709.74,-560.47 705.82,-561.98"/>
</g>
<!-- lib/lifecycle_managers/evas&#45;base&#45;lifecycle&#45;manager.js&#45;&gt;path -->
<g id="edge36" class="edge">
<title>lib/lifecycle_managers/evas&#45;base&#45;lifecycle&#45;manager.js&#45;&gt;path</title>
<path fill="none" stroke="#000000" stroke-dasharray="5,2" stroke-opacity="0.200000" d="M590.22,-234.52C633.14,-269.26 777.17,-385.83 828.1,-427.05"/>
<polygon fill="#000000" fill-opacity="0.200000" stroke="#000000" stroke-opacity="0.200000" points="826.67,-428.6 832.66,-430.74 829.32,-425.33 826.67,-428.6"/>
</g>
<!-- lib/lifecycle_managers/evas&#45;base&#45;lifecycle&#45;manager.js&#45;&gt;lib/evas&#45;base&#45;class.js -->
<g id="edge35" class="edge">
<title>lib/lifecycle_managers/evas&#45;base&#45;lifecycle&#45;manager.js&#45;&gt;lib/evas&#45;base&#45;class.js</title>
<path fill="none" stroke="#000000" stroke-width="2" stroke-opacity="0.200000" d="M603.1,-214.55C625.2,-205.67 657.52,-192.68 681.73,-182.95"/>
<polygon fill="#000000" fill-opacity="0.200000" stroke="#000000" stroke-width="2" stroke-opacity="0.200000" points="682.34,-184.97 687.12,-180.79 680.77,-181.08 682.34,-184.97"/>
</g>
<!-- tests/setup&#45;mocks.cjs -->
<g id="node21" class="node">
<title>tests/setup&#45;mocks.cjs</title>
<g id="a_node21"><a xlink:href="https://github.com/twyr/entity-value-aggregate-server/src/main/tests/setup-mocks.cjs" xlink:title="no&#45;orphans">
<path fill="#ccffcc" stroke="orange" d="M98.33,-548.26C98.33,-548.26 22.42,-548.26 22.42,-548.26 19.21,-548.26 16,-545.05 16,-541.84 16,-541.84 16,-535.43 16,-535.43 16,-532.22 19.21,-529.01 22.42,-529.01 22.42,-529.01 98.33,-529.01 98.33,-529.01 101.54,-529.01 104.75,-532.22 104.75,-535.43 104.75,-535.43 104.75,-541.84 104.75,-541.84 104.75,-545.05 101.54,-548.26 98.33,-548.26"/>
<text xml:space="preserve" text-anchor="start" x="24" y="-535.71" font-family="Helvetica,sans-Serif" font-size="9.00" fill="orange">setup&#45;mocks.cjs</text>
</a>
</g>
</g>
</g>
</svg>
