<?xml version="1.0" encoding="UTF-8" standalone="no"?>
<!DOCTYPE svg PUBLIC "-//W3C//DTD SVG 1.1//EN"
 "http://www.w3.org/Graphics/SVG/1.1/DTD/svg11.dtd">
<!-- Generated by graphviz version 14.1.1 (0)
 -->
<!-- Title: dependency&#45;cruiser output Pages: 1 -->
<svg width="241pt" height="115pt"
 viewBox="0.00 0.00 241.00 115.00" xmlns="http://www.w3.org/2000/svg" xmlns:xlink="http://www.w3.org/1999/xlink">
<g id="graph0" class="graph" transform="scale(1 1) rotate(0) translate(4 111)">
<title>dependency&#45;cruiser output</title>
<polygon fill="white" stroke="none" points="-4,4 -4,-111 236.75,-111 236.75,4 -4,4"/>
<g id="clust1" class="cluster">
<title>cluster_lib</title>
<path fill="#ffffff" stroke="black" stroke-width="2" d="M132.75,-8C132.75,-8 212.75,-8 212.75,-8 218.75,-8 224.75,-14 224.75,-20 224.75,-20 224.75,-51 224.75,-51 224.75,-57 218.75,-63 212.75,-63 212.75,-63 132.75,-63 132.75,-63 126.75,-63 120.75,-57 120.75,-51 120.75,-51 120.75,-20 120.75,-20 120.75,-14 126.75,-8 132.75,-8"/>
<text xml:space="preserve" text-anchor="middle" x="172.75" y="-50.45" font-family="Helvetica,sans-Serif" font-weight="bold" font-size="9.00">lib</text>
</g>
<g id="clust2" class="cluster">
<title>cluster_tests</title>
<path fill="#ffffff" stroke="black" stroke-width="2" d="M20,-44C20,-44 100.75,-44 100.75,-44 106.75,-44 112.75,-50 112.75,-56 112.75,-56 112.75,-87 112.75,-87 112.75,-93 106.75,-99 100.75,-99 100.75,-99 20,-99 20,-99 14,-99 8,-93 8,-87 8,-87 8,-56 8,-56 8,-50 14,-44 20,-44"/>
<text xml:space="preserve" text-anchor="middle" x="60.38" y="-86.45" font-family="Helvetica,sans-Serif" font-weight="bold" font-size="9.00">tests</text>
</g>
<!-- index.js -->
<g id="node1" class="node">
<title>index.js</title>
<g id="a_node1"><a xlink:href="https://github.com/twyr/entity-value-aggregate-server/src/main/index.js" xlink:title="index.js">
<path fill="#ffffcc" stroke="black" d="M80.96,-35.62C80.96,-35.62 39.79,-35.62 39.79,-35.62 36.58,-35.62 33.38,-32.42 33.38,-29.21 33.38,-29.21 33.38,-22.79 33.38,-22.79 33.38,-19.58 36.58,-16.38 39.79,-16.38 39.79,-16.38 80.96,-16.38 80.96,-16.38 84.17,-16.38 87.38,-19.58 87.38,-22.79 87.38,-22.79 87.38,-29.21 87.38,-29.21 87.38,-32.42 84.17,-35.62 80.96,-35.62"/>
<text xml:space="preserve" text-anchor="start" x="43.12" y="-23.07" font-family="Helvetica,sans-Serif" font-size="9.00">index.js</text>
</a>
</g>
</g>
<!-- lib/error&#45;serializer.js -->
<g id="node2" class="node">
<title>lib/error&#45;serializer.js</title>
<g id="a_node2"><a xlink:href="https://github.com/twyr/entity-value-aggregate-server/src/main/lib/error-serializer.js" xlink:title="error&#45;serializer.js">
<path fill="#ffffcc" stroke="black" d="M210.33,-35.62C210.33,-35.62 135.17,-35.62 135.17,-35.62 131.96,-35.62 128.75,-32.42 128.75,-29.21 128.75,-29.21 128.75,-22.79 128.75,-22.79 128.75,-19.58 131.96,-16.38 135.17,-16.38 135.17,-16.38 210.33,-16.38 210.33,-16.38 213.54,-16.38 216.75,-19.58 216.75,-22.79 216.75,-22.79 216.75,-29.21 216.75,-29.21 216.75,-32.42 213.54,-35.62 210.33,-35.62"/>
<text xml:space="preserve" text-anchor="start" x="136.75" y="-23.07" font-family="Helvetica,sans-Serif" font-size="9.00">error&#45;serializer.js</text>
</a>
</g>
</g>
<!-- index.js&#45;&gt;lib/error&#45;serializer.js -->
<g id="edge1" class="edge">
<title>index.js&#45;&gt;lib/error&#45;serializer.js</title>
<path fill="none" stroke="#000000" stroke-width="2" stroke-opacity="0.200000" d="M87.81,-26C97.85,-26 109.64,-26 121.17,-26"/>
<polygon fill="#000000" fill-opacity="0.200000" stroke="#000000" stroke-width="2" stroke-opacity="0.200000" points="127.29,-28.1 121.29,-26 127.29,-23.9 127.29,-28.1"/>
</g>
<!-- tests/setup&#45;mocks.cjs -->
<g id="node3" class="node">
<title>tests/setup&#45;mocks.cjs</title>
<g id="a_node3"><a xlink:href="https://github.com/twyr/entity-value-aggregate-server/src/main/tests/setup-mocks.cjs" xlink:title="no&#45;orphans">
<path fill="#ccffcc" stroke="orange" d="M98.33,-71.62C98.33,-71.62 22.42,-71.62 22.42,-71.62 19.21,-71.62 16,-68.42 16,-65.21 16,-65.21 16,-58.79 16,-58.79 16,-55.58 19.21,-52.38 22.42,-52.38 22.42,-52.38 98.33,-52.38 98.33,-52.38 101.54,-52.38 104.75,-55.58 104.75,-58.79 104.75,-58.79 104.75,-65.21 104.75,-65.21 104.75,-68.42 101.54,-71.62 98.33,-71.62"/>
<text xml:space="preserve" text-anchor="start" x="24" y="-59.08" font-family="Helvetica,sans-Serif" font-size="9.00" fill="orange">setup&#45;mocks.cjs</text>
</a>
</g>
</g>
</g>
</svg>
